<svg width="190" height="182" viewBox="0 0 190 182" fill="none" xmlns="http://www.w3.org/2000/svg">
<path fill-rule="evenodd" clip-rule="evenodd" d="M52.0188 149.834C50.554 149.834 49.3696 148.646 49.3696 147.177C49.3696 146.532 49.8085 145.748 50.3324 144.812C51.0014 143.617 51.8091 142.174 52.0188 140.456C52.2292 142.197 53.0413 143.641 53.7115 144.833C54.2326 145.76 54.668 146.534 54.668 147.177C54.668 148.646 53.4837 149.834 52.0188 149.834ZM50.118 146.427C49.9622 146.771 49.8375 147.052 49.8375 147.334C49.8375 148.115 50.3362 148.772 51.0842 148.99C50.4609 148.49 50.0557 147.74 50.0557 146.896C50.0557 146.74 50.0869 146.583 50.118 146.427ZM16.2382 159.368C17.3602 158.055 17.8901 156.492 17.8901 154.648C17.8901 152.116 17.0797 150.209 15.459 148.928C13.8383 147.646 11.4073 147.021 8.16585 147.021H0V173.841H5.70363V161.306L12.7474 173.841H19.3549L11.9683 161.65C13.6825 161.431 15.1162 160.65 16.2382 159.368ZM6.54598 158.462H5.67329V151.397H6.54598C8.75886 151.397 10.2549 151.679 11.0341 152.241C11.8133 152.804 12.2184 153.742 12.2184 155.055C12.2184 156.305 11.8444 157.18 11.0964 157.712C10.3484 158.243 8.85236 158.462 6.54598 158.462ZM26.7416 155.273C23.9677 155.273 21.7236 156.18 19.9471 157.993C18.1705 159.806 17.2978 162.119 17.2978 164.964C17.2978 167.902 18.1394 170.215 19.8224 171.966C21.5054 173.716 23.8118 174.56 26.7104 174.56C28.6116 174.56 30.2635 174.185 31.666 173.404C33.0685 172.622 34.2217 171.466 35.2191 169.903L31.0115 167.808C30.544 168.558 29.983 169.121 29.2973 169.465C28.6116 169.809 27.8012 170.028 26.8351 170.028C25.5884 170.028 24.591 169.715 23.843 169.059C23.095 168.402 22.6586 167.464 22.4405 166.152H35.9047C35.9131 166.051 35.9215 165.957 35.9292 165.87L35.9292 165.87C35.9504 165.632 35.9671 165.445 35.9671 165.308C35.9671 165.209 35.9756 165.111 35.9837 165.018C35.9912 164.932 35.9983 164.851 35.9983 164.776C35.9983 161.838 35.1567 159.525 33.5049 157.805C31.853 156.086 29.6089 155.273 26.7416 155.273ZM22.5952 162.995C22.7823 161.869 23.2498 160.994 23.9354 160.431C24.6211 159.869 25.5561 159.556 26.7405 159.556C27.9249 159.556 28.8287 159.837 29.5144 160.431C30.2001 161.025 30.6053 161.869 30.7611 162.995H22.5952ZM42.5741 155.867H49.3063H52.1113H54.48V173.81H49.3063V159.931H42.5741V173.81H37.3692V159.931V155.836V151.804C37.3692 149.397 37.899 147.646 39.021 146.615C40.1431 145.583 41.9508 145.052 44.5065 145.052C44.787 145.052 45.0987 145.083 45.4727 145.145C45.8467 145.208 46.3454 145.302 46.9375 145.458V149.616C46.6259 149.459 46.3142 149.334 46.0337 149.24C45.7532 149.147 45.4415 149.115 45.1298 149.115C44.1948 149.115 43.5715 149.365 43.1663 149.834C42.7611 150.303 42.5741 151.147 42.5741 152.335V155.867ZM56.8489 145.458H62.0227V173.841H56.8489V145.458ZM69.5973 145.458H64.4235V173.841H69.5973V145.458ZM100.078 158.087C99.5795 157.149 98.8938 156.43 98.0211 155.961C97.1485 155.492 96.0576 155.242 94.8109 155.242C93.5642 155.242 92.411 155.555 91.3513 156.18C90.2916 156.805 89.3566 157.712 88.5151 158.931C88.1411 157.712 87.4554 156.774 86.5204 156.18C85.5854 155.586 84.3698 155.273 82.905 155.273C81.6894 155.273 80.5674 155.555 79.6012 156.086C78.635 156.618 77.7312 157.493 76.8585 158.681V155.867H71.6536V173.841H76.8585V165.933C76.8585 163.713 77.1702 162.088 77.7935 161.056C78.4169 160.025 79.4142 159.556 80.7856 159.556C81.783 159.556 82.4998 159.931 82.9361 160.681C83.3725 161.431 83.5595 162.869 83.5595 164.964V173.841H88.7644V165.933C88.7644 163.651 89.0761 162.025 89.6683 161.025C90.2605 160.025 91.2267 159.525 92.5668 159.525C93.6889 159.525 94.4369 159.9 94.9044 160.619C95.3719 161.338 95.5589 162.807 95.5589 164.964V173.841H100.764V163.338V162.776C100.764 161.463 100.702 160.462 100.608 159.837C100.515 159.212 100.328 158.618 100.078 158.087ZM110.239 166.089C110.426 165.401 110.644 164.682 110.925 163.901L113.605 155.867H119.558L108.899 182H103.133L107.029 172.435L99.8291 155.867H105.844L108.961 164.089C109.148 164.62 109.335 165.214 109.46 165.87C109.584 166.527 109.709 167.277 109.771 168.09C109.896 167.433 110.052 166.777 110.239 166.089ZM127.723 149.897H122.518V155.867H120.025V159.962H122.518V173.841H127.723V159.962H130.216V155.867H127.723V149.897ZM144.377 158.837C143.691 157.649 142.85 156.774 141.852 156.149C140.855 155.523 139.671 155.242 138.362 155.242C135.806 155.242 133.842 156.086 132.409 157.774C130.975 159.462 130.258 161.838 130.258 164.839C130.258 167.746 130.975 170.09 132.44 171.841C133.905 173.591 135.806 174.498 138.175 174.498C139.608 174.498 140.793 174.248 141.79 173.716C142.787 173.185 143.629 172.341 144.346 171.216L144.283 173.81H149.333V155.836H144.408V158.837H144.377ZM143.38 168.621C142.601 169.528 141.479 169.965 140.045 169.965C138.643 169.965 137.521 169.528 136.742 168.621C135.962 167.715 135.557 166.464 135.557 164.839C135.557 163.213 135.962 161.932 136.773 160.994C137.583 160.056 138.705 159.587 140.108 159.587C141.479 159.587 142.57 160.056 143.38 160.994C144.19 161.932 144.596 163.213 144.596 164.807C144.564 166.464 144.159 167.715 143.38 168.621ZM168.532 158.118C167.971 157.149 167.223 156.43 166.288 155.961C165.353 155.492 164.169 155.242 162.797 155.242C161.488 155.242 160.273 155.523 159.213 156.086C158.153 156.649 157.125 157.493 156.19 158.681V155.867H151.11V173.841H156.315V165.933V165.214C156.315 164.088 156.377 163.244 156.533 162.713C156.689 162.182 156.907 161.682 157.218 161.244C157.624 160.681 158.122 160.275 158.714 159.962C159.307 159.65 159.992 159.525 160.709 159.525C161.956 159.525 162.829 159.868 163.327 160.587C163.826 161.306 164.106 162.744 164.106 164.964V173.841H169.311V163.338V162.776C169.311 161.431 169.249 160.431 169.124 159.806C169 159.181 168.781 158.618 168.532 158.118ZM189.196 155.867L181.965 163.838L189.913 173.841H183.461L176.293 164.307V173.841H171.088V145.458H176.293V163.838L182.932 155.867H189.196Z" fill="white"/>
<path fill-rule="evenodd" clip-rule="evenodd" d="M83.6647 34.3972C92.9797 18.5379 86.301 0 86.301 0C86.301 0 91.5297 19.2607 74.4375 31.2083C71.0542 33.5893 65.2104 38.0538 62.574 40.1371C45.7015 53.4453 57.3014 90.4361 57.3014 90.4361C57.3014 90.4361 53.8741 72.1533 64.5513 55.4012C67.9997 49.9995 71.1098 47.4827 74.1461 45.0257C77.2998 42.4737 80.3739 39.9861 83.6647 34.3972ZM95.5001 103.643C86.7147 99.7403 79.7535 90.5421 78.9854 80.6935C78.1516 70.3709 84.3954 63.1999 90.8765 55.7564C97.0832 48.6281 103.507 41.2498 104.142 30.6143C104.862 18.6287 97.9486 8.03683 90.4593 0C95.8842 18.3035 92.8117 29.0348 89.0191 35.4921C85.4855 41.4685 79.7197 46.463 75.0763 50.4852C72.4648 52.7474 70.2083 54.702 68.9037 56.3507C65.711 60.3857 57.8619 72.7031 60.2623 86.965C62.6627 101.041 74.9527 115.628 92.6197 118.276C111.247 121.064 130.21 109.728 136.499 91.146C124.737 104.432 107.838 109.078 95.5001 103.643ZM97.5354 72.6798C97.4261 73.4257 97.3072 74.2364 97.2129 75.1344C100.553 70.8562 100.262 67.4778 99.9651 64.0349C99.6818 60.7486 99.3933 57.4035 102.254 53.1609C102.254 53.1609 103.79 61.0119 109.263 65.9362C114.688 70.8605 111.183 80.1516 111.183 80.1516C115.024 78.665 115.648 74.5769 114.592 71.0463C114.592 71.0463 125.778 84.2862 114.112 92.1372C112.911 92.9269 111.615 93.5773 110.175 93.9954C111.663 92.5088 112.671 90.4183 112.767 87.8633C112.904 84.0801 109.726 82.1923 106.667 80.3755C103.265 78.355 100.012 76.4224 101.63 72.0683C97.9773 77.9832 100.033 79.7229 102.531 81.836C104.76 83.7227 107.342 85.907 106.526 91.6262C105.533 86.535 103.222 85.1463 101.35 84.021C100.147 83.2981 99.1247 82.6839 98.7491 81.2665C98.4435 83.8478 99.0867 84.8261 99.8131 85.931C100.342 86.735 100.914 87.606 101.198 89.2105C100.671 88.5622 100.14 88.0883 99.6448 87.6474C98.6505 86.7611 97.8055 86.0079 97.4529 84.2397C97.4529 84.2397 96.3487 86.005 96.7328 89.0247C97.0208 91.3939 97.837 93.1592 98.9892 94.3671C92.5081 93.0198 87.1792 89.1176 88.0434 83.9145C88.7837 79.4569 90.2112 77.1389 91.4994 75.0472C93.2184 72.2558 94.6893 69.8673 93.9483 63.3347C98.4043 66.7531 98.0936 68.8722 97.5354 72.6798Z" fill="white"/>
</svg>
