<svg width="97" height="92" viewBox="0 0 97 92" fill="none" xmlns="http://www.w3.org/2000/svg">
<path fill-rule="evenodd" clip-rule="evenodd" d="M26.4832 75.7404C25.7427 75.7404 25.144 75.14 25.144 74.3973C25.144 74.0711 25.3659 73.6748 25.6307 73.2017C25.9689 72.5977 26.3772 71.8684 26.4832 71C26.5896 71.88 27 72.61 27.3388 73.2125C27.6023 73.681 27.8224 74.0724 27.8224 74.3973C27.8224 75.14 27.2237 75.7404 26.4832 75.7404ZM25.5222 74.0181C25.4434 74.1919 25.3804 74.3341 25.3804 74.4763C25.3804 74.8713 25.6324 75.2032 26.0106 75.3138C25.6955 75.0609 25.4906 74.6817 25.4906 74.2551C25.4906 74.1761 25.5064 74.0971 25.5222 74.0181ZM8.39655 80.5598C8.96372 79.8962 9.23156 79.1061 9.23156 78.1738C9.23156 76.8939 8.82193 75.93 8.00267 75.2822C7.18342 74.6343 5.95453 74.3183 4.31602 74.3183H0.188232V87.8758H3.07138V81.5395L6.632 87.8758H9.97204L6.23812 81.7133C7.10464 81.6027 7.82937 81.2077 8.39655 80.5598ZM3.49677 80.1016H3.05563V76.5305H3.49677C4.61537 76.5305 5.3716 76.6727 5.76548 76.9571C6.15935 77.2415 6.36416 77.7156 6.36416 78.3792C6.36416 79.0113 6.1751 79.4537 5.79699 79.7223C5.41887 79.991 4.66263 80.1016 3.49677 80.1016ZM13.706 78.4898C12.3038 78.4898 11.1694 78.9481 10.2714 79.8646C9.37335 80.781 8.93221 81.9503 8.93221 83.3883C8.93221 84.8736 9.3576 86.0429 10.2084 86.9278C11.0591 87.8126 12.225 88.2393 13.6902 88.2393C14.6513 88.2393 15.4863 88.0497 16.1952 87.6546C16.9042 87.2596 17.4871 86.6749 17.9913 85.8849L15.8644 84.8262C15.6281 85.2054 15.3445 85.4898 14.9979 85.6637C14.6513 85.8375 14.2416 85.9481 13.7532 85.9481C13.123 85.9481 12.6189 85.7901 12.2407 85.4582C11.8626 85.1264 11.6421 84.6524 11.5318 83.9887H18.3379C18.3421 83.9383 18.3463 83.8912 18.3502 83.8474L18.3503 83.8465V83.8465C18.361 83.7263 18.3694 83.6315 18.3694 83.5621C18.3694 83.5125 18.3737 83.4629 18.3778 83.4156L18.3778 83.4155C18.3816 83.3724 18.3852 83.3311 18.3852 83.2935C18.3852 81.8081 17.9598 80.6388 17.1248 79.7698C16.2898 78.9007 15.1554 78.4898 13.706 78.4898ZM11.6106 82.3928C11.7051 81.8239 11.9414 81.3815 12.288 81.0971C12.6346 80.8126 13.1073 80.6546 13.706 80.6546C14.3046 80.6546 14.7615 80.7968 15.1081 81.0971C15.4548 81.3973 15.6596 81.8239 15.7383 82.3928H11.6106ZM21.7095 78.7901H25.1125V78.7743H26.5305H27.7278V87.86H25.1125V80.8442H21.7095V87.86H19.0784V80.8442V78.7743V76.7359C19.0784 75.5192 19.3462 74.6343 19.9134 74.1129C20.4806 73.5914 21.3944 73.3228 22.6863 73.3228C22.8281 73.3228 22.9856 73.3386 23.1747 73.3702C23.3637 73.4018 23.6158 73.4492 23.9151 73.5282V75.6298C23.7576 75.5508 23.6 75.4876 23.4583 75.4402C23.3165 75.3928 23.1589 75.377 23.0014 75.377C22.5287 75.377 22.2136 75.5034 22.0088 75.7404C21.804 75.9774 21.7095 76.4041 21.7095 77.0045V78.7901ZM28.9252 73.5282H31.5405V87.8758H28.9252V73.5282ZM35.369 73.5282H32.7537V87.8758H35.369V73.5282ZM50.7773 79.912C50.5252 79.4379 50.1786 79.0745 49.7375 78.8375C49.2963 78.6005 48.7449 78.474 48.1147 78.474C47.4845 78.474 46.9016 78.6321 46.3659 78.9481C45.8302 79.2641 45.3576 79.7223 44.9322 80.3386C44.7432 79.7223 44.3965 79.2483 43.9239 78.9481C43.4513 78.6479 42.8368 78.4898 42.0963 78.4898C41.4819 78.4898 40.9147 78.6321 40.4263 78.9007C39.9379 79.1693 39.481 79.6117 39.0399 80.2122V78.7901H36.4088V87.8758H39.0399V83.8781C39.0399 82.7562 39.1974 81.9345 39.5125 81.4131C39.8276 80.8916 40.3318 80.6546 41.025 80.6546C41.5292 80.6546 41.8915 80.8442 42.1121 81.2235C42.3327 81.6027 42.4272 82.3296 42.4272 83.3883V87.8758H45.0583V83.8781C45.0583 82.7246 45.2158 81.9029 45.5151 81.3973C45.8145 80.8916 46.3029 80.6388 46.9804 80.6388C47.5475 80.6388 47.9257 80.8284 48.162 81.1919C48.3983 81.5553 48.4928 82.298 48.4928 83.3883V87.8758H51.1239V82.5666V82.2822C51.1239 81.6185 51.0924 81.1129 51.0451 80.7968C50.9979 80.4808 50.9033 80.1806 50.7773 79.912ZM55.9134 83.9571C56.0079 83.6095 56.1182 83.246 56.26 82.851L57.6149 78.7901H60.6241L55.2359 92H52.3213L54.2906 87.1648L50.6513 78.7901H53.692L55.2674 82.9458C55.362 83.2144 55.4565 83.5147 55.5195 83.8465C55.5825 84.1783 55.6456 84.5576 55.6771 84.9684C55.7401 84.6366 55.8189 84.3047 55.9134 83.9571ZM64.7519 75.772H62.1208V78.7901H60.8604V80.86H62.1208V87.8758H64.7519V80.86H66.0123V78.7901H64.7519V75.772ZM73.1703 80.2912C72.8237 79.6907 72.3983 79.2483 71.8941 78.9323C71.39 78.6163 70.7913 78.474 70.1296 78.474C68.8377 78.474 67.8451 78.9007 67.1204 79.754C66.3957 80.6072 66.0333 81.8081 66.0333 83.3251C66.0333 84.7946 66.3957 85.9797 67.1362 86.8646C67.8766 87.7494 68.8377 88.2077 70.0351 88.2077C70.7598 88.2077 71.3585 88.0813 71.8626 87.8126C72.3668 87.544 72.7922 87.1174 73.1545 86.5485L73.123 87.86H75.6753V78.7743H73.186V80.2912H73.1703ZM72.6661 85.237C72.2723 85.6953 71.7051 85.9165 70.9804 85.9165C70.2714 85.9165 69.7042 85.6953 69.3103 85.237C68.9165 84.7788 68.7116 84.1467 68.7116 83.3251C68.7116 82.5034 68.9165 81.8555 69.3261 81.3815C69.7357 80.9074 70.3029 80.6704 71.0119 80.6704C71.7051 80.6704 72.2565 80.9074 72.6661 81.3815C73.0758 81.8555 73.2806 82.5034 73.2806 83.3093C73.2648 84.1467 73.06 84.7788 72.6661 85.237ZM85.3803 79.9278C85.0968 79.4379 84.7186 79.0745 84.246 78.8375C83.7733 78.6005 83.1747 78.474 82.4814 78.474C81.8197 78.474 81.2053 78.6163 80.6696 78.9007C80.134 79.1851 79.6141 79.6117 79.1414 80.2122V78.7901H76.5733V87.8758H79.2044V83.8781V83.5147C79.2044 82.9458 79.2359 82.5192 79.3147 82.2506C79.3935 81.9819 79.5038 81.7291 79.6613 81.5079C79.8661 81.2235 80.1182 81.0181 80.4175 80.86C80.7169 80.702 81.0635 80.6388 81.4259 80.6388C82.0561 80.6388 82.4972 80.8126 82.7493 81.1761C83.0014 81.5395 83.1432 82.2664 83.1432 83.3883V87.8758H85.7742V82.5666V82.2822C85.7742 81.6027 85.7427 81.0971 85.6797 80.781C85.6167 80.465 85.5064 80.1806 85.3803 79.9278ZM95.8259 78.7901L92.1707 82.8194L96.1882 87.8758H92.927L89.3033 83.0564V87.8758H86.6723V73.5282H89.3033V82.8194L92.6591 78.7901H95.8259Z" fill="#333C44"/>
<path fill-rule="evenodd" clip-rule="evenodd" d="M42.4801 17.3876C47.1888 9.37082 43.8128 0 43.8128 0C43.8128 0 46.4559 9.73619 37.8158 15.7756C36.1056 16.9792 33.1516 19.236 31.8189 20.2891C23.29 27.0163 29.1536 45.715 29.1536 45.715C29.1536 45.715 27.4212 36.4731 32.8184 28.005C34.5616 25.2745 36.1337 24.0023 37.6685 22.7603C39.2627 21.4702 40.8167 20.2127 42.4801 17.3876ZM48.4636 52.3908C44.0226 50.4182 40.5037 45.7686 40.1155 40.7901C39.694 35.5721 42.8502 31.9472 46.1264 28.1846C49.2638 24.5812 52.5112 20.8516 52.8318 15.4754C53.1958 9.41672 49.7012 4.06258 45.9155 0C48.6577 9.25234 47.1046 14.6769 45.1874 17.9411C43.4012 20.9621 40.4866 23.4868 38.1394 25.52L38.1394 25.52C36.8193 26.6635 35.6787 27.6516 35.0192 28.485C33.4053 30.5247 29.4376 36.751 30.651 43.9604C31.8644 51.0757 38.077 58.4494 47.0075 59.788C56.4234 61.197 66.0092 55.4671 69.1882 46.0738C63.2426 52.79 54.7004 55.1383 48.4636 52.3908ZM49.4916 36.7392C49.4363 37.1163 49.3762 37.5261 49.3285 37.98C51.0171 35.8174 50.8698 34.1096 50.7198 32.3693C50.5765 30.708 50.4307 29.0171 51.8766 26.8725C51.8766 26.8725 52.6532 30.8411 55.4197 33.3303C58.162 35.8196 56.3904 40.5162 56.3904 40.5162C58.3319 39.7647 58.6473 37.6982 58.1134 35.9135C58.1134 35.9135 63.7678 42.6062 57.8708 46.5748C57.2641 46.974 56.6088 47.3028 55.8808 47.5141C56.6331 46.7627 57.1427 45.7059 57.1913 44.4144C57.2602 42.502 55.6536 41.5477 54.1075 40.6294C52.3881 39.608 50.7434 38.6311 51.5611 36.4301C49.7149 39.4201 50.7542 40.2995 52.0166 41.3676C53.1437 42.3213 54.4485 43.4255 54.0365 46.3165C53.5341 43.7429 52.366 43.0409 51.4196 42.4721C50.8115 42.1067 50.2949 41.7962 50.1051 41.0798C49.9506 42.3846 50.2757 42.8791 50.6429 43.4376C50.9101 43.844 51.1996 44.2843 51.3427 45.0954C51.0767 44.7677 50.8079 44.5281 50.5578 44.3052C50.0552 43.8572 49.6281 43.4765 49.4499 42.5827C49.4499 42.5827 48.8917 43.475 49.0858 45.0014C49.2314 46.1991 49.644 47.0914 50.2264 47.702C46.9503 47.021 44.2566 45.0484 44.6934 42.4183C45.0676 40.165 45.7892 38.9933 46.4404 37.9359C47.3093 36.5249 48.0529 35.3175 47.6783 32.0153C49.9308 33.7433 49.7737 34.8145 49.4916 36.7392Z" fill="#00A524"/>
</svg>
